<svg xmlns="http://www.w3.org/2000/svg" width="112" height="23" viewBox="0 0 112 23" fill="none">
  <path d="M40.4336 6.33265H34.0024V4.77203H43.8229V6.01696L36.8398 14.5139L36.3099 15.1587H37.1445H43.8229V16.744H33.8046V15.4446L40.738 7.02721L40.8279 6.91798V6.77648V6.72702V6.33265H40.4336Z" fill="#222222" stroke="#222222" stroke-width="0.788734"/>
  <path d="M46.2711 13.454C46.2711 11.5251 47.6312 9.99179 51.0687 9.99179H55.7921V9.07678C55.7921 7.17256 54.6793 6.30701 52.4289 6.30701C50.4505 6.30701 49.3376 7.04891 49.3376 8.48326C49.3376 8.55745 49.3376 8.78002 49.3376 8.97786H46.6667C46.6667 8.80475 46.6173 8.45853 46.6173 8.23595C46.6173 5.66403 48.843 4.15549 52.503 4.15549C56.3857 4.15549 58.6608 5.98552 58.6608 9.34881V17.1388H55.7674C55.8169 16.5205 55.8911 15.3582 55.8911 14.3196C55.4707 16.199 53.9621 17.3366 51.1182 17.3366C48.2742 17.3366 46.2463 15.927 46.2463 13.454H46.2711ZM55.7921 11.9702V11.7476H51.316C49.6591 11.7476 48.9419 12.3164 48.9419 13.3304C48.9419 14.4927 49.9806 15.1604 51.7364 15.1604C54.2342 15.1604 55.7921 13.9486 55.7921 11.9702Z" fill="#222222"/>
  <path d="M61.5546 4.35397H64.448L64.3986 7.32158C64.9179 5.39263 66.6243 4.1314 69.1715 4.1314C72.8315 4.1314 75.1314 6.62913 75.1314 10.487C75.1314 14.617 72.8068 17.3125 69.122 17.3125C66.5748 17.3125 64.9179 16.1749 64.3986 14.518C64.3986 15.3836 64.4727 16.6943 64.4727 17.2136V22.2338H61.5793V4.32924L61.5546 4.35397ZM72.238 10.6107C72.238 8.1624 70.8036 6.55495 68.5038 6.55495C66.2039 6.55495 64.4975 8.18713 64.448 10.7591V11.4268C64.448 13.603 66.0802 14.9879 68.5532 14.9879C70.7789 14.9879 72.238 13.2815 72.238 10.6107Z" fill="#222222"/>
  <path d="M77.7257 4.35397H80.6191L80.5697 7.32158C81.089 5.39263 82.7954 4.1314 85.3426 4.1314C89.0026 4.1314 91.3025 6.62913 91.3025 10.487C91.3025 14.617 88.9779 17.3125 85.2931 17.3125C82.7459 17.3125 81.089 16.1749 80.5697 14.518C80.5697 15.3836 80.6439 16.6943 80.6439 17.2136V22.2338H77.7504V4.32924L77.7257 4.35397ZM88.4091 10.6107C88.4091 8.1624 86.9748 6.55495 84.6749 6.55495C82.375 6.55495 80.6686 8.18713 80.6191 10.7591V11.4268C80.6191 13.603 82.2513 14.9879 84.7243 14.9879C86.95 14.9879 88.4091 13.2815 88.4091 10.6107Z" fill="#222222"/>
  <path d="M93.9222 0H96.8899V2.84396H93.9222V0ZM93.947 4.3525H96.8404V17.1379H93.947V4.3525Z" fill="#222222"/>
  <path d="M111.975 11.3272H102.405C102.553 13.7755 103.938 15.1109 106.114 15.1109C107.969 15.1109 109.255 14.2948 109.379 12.7863H112C111.901 15.6303 109.576 17.3614 106.065 17.3614C102.034 17.3614 99.4865 14.8883 99.4865 10.8573C99.4865 6.82634 102.034 4.15549 106.065 4.15549C109.675 4.15549 112 6.30701 112 10.2886V11.3272H111.975ZM109.354 9.39827C109.354 7.49405 108.167 6.43066 106.065 6.43066C103.963 6.43066 102.8 7.46932 102.479 9.59611H109.354V9.423V9.39827Z" fill="#222222"/>
  <path d="M0 7.41902L7.41902 0H22.2571V7.41902L13.1811 11.1285L14.838 7.41902H0Z" fill="#9FE870"/>
  <path d="M22.2571 14.838L14.838 22.257H0V14.838L9.05121 11.1285L7.41902 14.838H22.2571Z" fill="#9FE870"/>
</svg>
